<svg width="1440" height="900" viewBox="0 0 1440 900" fill="none" xmlns="http://www.w3.org/2000/svg">
  <rect width="1440" height="900" rx="28" fill="#F7F4EF"/>
  <rect width="1440" height="62" fill="#876042"/>
  <rect x="28" y="20" width="210" height="22" rx="6" fill="#FFF8F0" fill-opacity="0.92"/>
  <rect y="62" width="176" height="838" fill="#FFFDFC"/>
  <rect x="16" y="92" width="108" height="14" rx="4" fill="#9B7B61" fill-opacity="0.20"/>
  <rect x="16" y="128" width="140" height="42" rx="10" fill="#9B7B61" fill-opacity="0.08"/>
  <rect x="24" y="142" width="92" height="12" rx="4" fill="#876042" fill-opacity="0.78"/>
  <rect x="16" y="246" width="112" height="14" rx="4" fill="#9B7B61" fill-opacity="0.20"/>
  <rect x="16" y="288" width="118" height="14" rx="4" fill="#9B7B61" fill-opacity="0.20"/>
  <rect x="202" y="98" width="196" height="20" rx="6" fill="#876042" fill-opacity="0.92"/>
  <rect x="198" y="134" width="1218" height="690" rx="18" fill="#FFFDFC" stroke="#E6D6C7"/>
  <rect x="222" y="166" width="144" height="14" rx="4" fill="#876042" fill-opacity="0.78"/>
  <rect x="222" y="202" width="120" height="12" rx="4" fill="#876042" fill-opacity="0.52"/>
  <rect x="828" y="202" width="64" height="12" rx="4" fill="#876042" fill-opacity="0.52"/>
  <rect x="222" y="220" width="586" height="36" rx="10" fill="#FAF7F2" stroke="#E6D6C7"/>
  <rect x="824" y="220" width="586" height="36" rx="10" fill="#FAF7F2" stroke="#E6D6C7"/>
  <line x1="222" y1="272" x2="1410" y2="272" stroke="#E6D6C7"/>
  <rect x="222" y="296" width="150" height="14" rx="4" fill="#876042" fill-opacity="0.78"/>
  <rect x="222" y="334" width="106" height="12" rx="4" fill="#876042" fill-opacity="0.52"/>
  <rect x="824" y="334" width="70" height="12" rx="4" fill="#876042" fill-opacity="0.52"/>
  <rect x="222" y="352" width="586" height="36" rx="10" fill="#FAF7F2" stroke="#E6D6C7"/>
  <rect x="824" y="352" width="586" height="36" rx="10" fill="#FAF7F2" stroke="#E6D6C7"/>
  <line x1="222" y1="404" x2="1410" y2="404" stroke="#E6D6C7"/>
  <rect x="222" y="428" width="126" height="12" rx="4" fill="#876042" fill-opacity="0.52"/>
  <rect x="824" y="428" width="76" height="12" rx="4" fill="#876042" fill-opacity="0.52"/>
  <rect x="222" y="446" width="586" height="36" rx="10" fill="#FAF7F2" stroke="#E6D6C7"/>
  <rect x="824" y="446" width="586" height="36" rx="10" fill="#FAF7F2" stroke="#E6D6C7"/>
  <line x1="222" y1="498" x2="1410" y2="498" stroke="#E6D6C7"/>
  <rect x="222" y="522" width="56" height="12" rx="4" fill="#876042" fill-opacity="0.52"/>
  <rect x="824" y="522" width="94" height="12" rx="4" fill="#876042" fill-opacity="0.52"/>
  <rect x="222" y="540" width="586" height="36" rx="10" fill="#FAF7F2" stroke="#E6D6C7"/>
  <rect x="824" y="540" width="586" height="36" rx="10" fill="#FAF7F2" stroke="#E6D6C7"/>
  <line x1="222" y1="592" x2="1410" y2="592" stroke="#E6D6C7"/>
  <rect x="222" y="616" width="134" height="12" rx="4" fill="#876042" fill-opacity="0.52"/>
  <rect x="824" y="616" width="52" height="12" rx="4" fill="#876042" fill-opacity="0.52"/>
  <rect x="222" y="634" width="586" height="36" rx="10" fill="#FAF7F2" stroke="#E6D6C7"/>
  <rect x="824" y="634" width="586" height="36" rx="10" fill="#FAF7F2" stroke="#E6D6C7"/>
  <g opacity="0.72" filter="url(#blurFields)">
    <rect x="236" y="230" width="104" height="16" rx="6" fill="#9B7B61"/>
    <rect x="844" y="230" width="84" height="16" rx="6" fill="#9B7B61"/>
    <rect x="236" y="362" width="172" height="16" rx="6" fill="#9B7B61"/>
    <rect x="844" y="362" width="98" height="16" rx="6" fill="#9B7B61"/>
    <rect x="236" y="456" width="146" height="16" rx="6" fill="#9B7B61"/>
    <rect x="844" y="456" width="118" height="16" rx="6" fill="#9B7B61"/>
    <rect x="236" y="550" width="138" height="16" rx="6" fill="#9B7B61"/>
    <rect x="844" y="550" width="104" height="16" rx="6" fill="#9B7B61"/>
    <rect x="236" y="644" width="194" height="16" rx="6" fill="#9B7B61"/>
    <rect x="844" y="644" width="62" height="16" rx="6" fill="#9B7B61"/>
  </g>
  <defs>
    <filter id="blurFields" x="228" y="222" width="742" height="446" filterUnits="userSpaceOnUse" color-interpolation-filters="sRGB">
      <feGaussianBlur stdDeviation="2.4"/>
    </filter>
  </defs>
</svg>
