<svg width="1440" height="900" viewBox="0 0 1440 900" fill="none" xmlns="http://www.w3.org/2000/svg">
  <rect width="1440" height="900" rx="28" fill="#F7F4EF"/>
  <rect width="1440" height="62" fill="#876042"/>
  <rect x="28" y="20" width="210" height="22" rx="6" fill="#FFF8F0" fill-opacity="0.92"/>
  <rect y="62" width="176" height="838" fill="#FFFDFC"/>
  <rect x="16" y="92" width="108" height="14" rx="4" fill="#9B7B61" fill-opacity="0.20"/>
  <rect x="16" y="128" width="140" height="42" rx="10" fill="#9B7B61" fill-opacity="0.08"/>
  <rect x="24" y="142" width="92" height="12" rx="4" fill="#876042" fill-opacity="0.78"/>
  <rect x="32" y="188" width="74" height="12" rx="4" fill="#876042" fill-opacity="0.46"/>
  <rect x="32" y="226" width="90" height="12" rx="4" fill="#876042" fill-opacity="0.46"/>
  <rect x="16" y="280" width="108" height="14" rx="4" fill="#9B7B61" fill-opacity="0.20"/>
  <rect x="32" y="322" width="84" height="12" rx="4" fill="#876042" fill-opacity="0.46"/>
  <rect x="32" y="360" width="106" height="12" rx="4" fill="#876042" fill-opacity="0.46"/>
  <rect x="16" y="438" width="118" height="14" rx="4" fill="#9B7B61" fill-opacity="0.20"/>
  <rect x="32" y="480" width="130" height="12" rx="4" fill="#876042" fill-opacity="0.46"/>
  <rect x="32" y="518" width="88" height="12" rx="4" fill="#876042" fill-opacity="0.46"/>
  <rect x="32" y="556" width="74" height="12" rx="4" fill="#876042" fill-opacity="0.46"/>
  <rect x="202" y="104" width="242" height="20" rx="6" fill="#876042" fill-opacity="0.92"/>
  <rect x="202" y="150" width="1210" height="78" rx="16" fill="white" stroke="#E6D6C7"/>
  <rect x="222" y="168" width="184" height="32" rx="10" fill="#FAF7F2" stroke="#E6D6C7"/>
  <rect x="422" y="168" width="142" height="32" rx="10" fill="#FAF7F2" stroke="#E6D6C7"/>
  <rect x="578" y="168" width="142" height="32" rx="10" fill="#FAF7F2" stroke="#E6D6C7"/>
  <rect x="736" y="168" width="78" height="32" rx="10" fill="#9C6B47"/>
  <rect x="828" y="168" width="82" height="32" rx="10" fill="#FFFDFC" stroke="#9C6B47"/>
  <rect x="202" y="246" width="1210" height="48" fill="#876042"/>
  <rect x="202" y="294" width="1210" height="52" fill="#FFFDFC"/>
  <rect x="202" y="346" width="1210" height="52" fill="#FAF7F2"/>
  <rect x="202" y="398" width="1210" height="52" fill="#FFFDFC"/>
  <rect x="202" y="450" width="1210" height="52" fill="#FAF7F2"/>
  <rect x="202" y="502" width="1210" height="52" fill="#FFFDFC"/>
  <rect x="202" y="554" width="1210" height="52" fill="#FAF7F2"/>
  <rect x="202" y="606" width="1210" height="52" fill="#FFFDFC"/>
  <rect x="202" y="658" width="1210" height="52" fill="#FAF7F2"/>
  <rect x="202" y="710" width="1210" height="52" fill="#FFFDFC"/>
  <line x1="300" y1="246" x2="300" y2="762" stroke="#E6D6C7"/>
  <line x1="444" y1="246" x2="444" y2="762" stroke="#E6D6C7"/>
  <line x1="980" y1="246" x2="980" y2="762" stroke="#E6D6C7"/>
  <line x1="1260" y1="246" x2="1260" y2="762" stroke="#E6D6C7"/>
  <g opacity="0.76">
    <rect x="220" y="262" width="42" height="12" rx="4" fill="#FFF8F0"/>
    <rect x="380" y="262" width="52" height="12" rx="4" fill="#FFF8F0"/>
    <rect x="484" y="262" width="88" height="12" rx="4" fill="#FFF8F0"/>
    <rect x="1022" y="262" width="98" height="12" rx="4" fill="#FFF8F0"/>
    <rect x="1334" y="262" width="44" height="12" rx="4" fill="#FFF8F0"/>
  </g>
  <g opacity="0.85" filter="url(#blurRows)">
    <rect x="220" y="314" width="56" height="12" rx="4" fill="#7A5D49"/>
    <rect x="364" y="314" width="70" height="12" rx="4" fill="#7A5D49"/>
    <rect x="460" y="314" width="190" height="12" rx="4" fill="#7A5D49"/>
    <rect x="1308" y="314" width="52" height="12" rx="4" fill="#7A5D49"/>
    <rect x="220" y="366" width="56" height="12" rx="4" fill="#7A5D49"/>
    <rect x="364" y="366" width="70" height="12" rx="4" fill="#7A5D49"/>
    <rect x="460" y="366" width="190" height="12" rx="4" fill="#7A5D49"/>
    <rect x="1308" y="366" width="52" height="12" rx="4" fill="#7A5D49"/>
    <rect x="220" y="418" width="56" height="12" rx="4" fill="#7A5D49"/>
    <rect x="364" y="418" width="70" height="12" rx="4" fill="#7A5D49"/>
    <rect x="460" y="418" width="190" height="12" rx="4" fill="#7A5D49"/>
    <rect x="1308" y="418" width="52" height="12" rx="4" fill="#7A5D49"/>
    <rect x="220" y="470" width="56" height="12" rx="4" fill="#7A5D49"/>
    <rect x="364" y="470" width="70" height="12" rx="4" fill="#7A5D49"/>
    <rect x="460" y="470" width="190" height="12" rx="4" fill="#7A5D49"/>
    <rect x="1308" y="470" width="52" height="12" rx="4" fill="#7A5D49"/>
    <rect x="220" y="522" width="56" height="12" rx="4" fill="#7A5D49"/>
    <rect x="364" y="522" width="70" height="12" rx="4" fill="#7A5D49"/>
    <rect x="460" y="522" width="190" height="12" rx="4" fill="#7A5D49"/>
    <rect x="1308" y="522" width="52" height="12" rx="4" fill="#7A5D49"/>
  </g>
  <defs>
    <filter id="blurRows" x="210" y="304" width="1168" height="240" filterUnits="userSpaceOnUse" color-interpolation-filters="sRGB">
      <feGaussianBlur stdDeviation="1.8"/>
    </filter>
  </defs>
</svg>
